<svg xmlns="http://www.w3.org/2000/svg" width="32.009" height="32.009" viewBox="0 0 32.009 32.009"><defs><style>.a{fill:none;}.b{fill:#fff;}</style></defs><path class="a" d="M0,0H32.009V32.009H0Z"/><path class="b" d="M24.639,16.457a9.435,9.435,0,0,0,.08-1.254,7.7,7.7,0,0,0-.093-1.254l2.707-2.107a.654.654,0,0,0,.16-.814L24.932,6.6a.651.651,0,0,0-.787-.293l-3.188,1.28A9.422,9.422,0,0,0,18.8,6.334l-.48-3.388a.645.645,0,0,0-.64-.547H12.556a.632.632,0,0,0-.627.547l-.48,3.388A9.63,9.63,0,0,0,9.288,7.588L6.1,6.308a.637.637,0,0,0-.787.293L2.766,11.029a.607.607,0,0,0,.16.814L5.634,13.95a7.42,7.42,0,0,0-.027,2.507L2.9,18.565a.654.654,0,0,0-.16.814L5.3,23.806a.651.651,0,0,0,.787.293l3.188-1.28a9.422,9.422,0,0,0,2.161,1.254l.48,3.388a.656.656,0,0,0,.64.547h5.121a.622.622,0,0,0,.627-.547l.48-3.388a9.148,9.148,0,0,0,2.161-1.254l3.188,1.28a.637.637,0,0,0,.787-.293l2.561-4.428a.617.617,0,0,0-.16-.814Zm-9.523,3.548a4.8,4.8,0,1,1,4.8-4.8A4.815,4.815,0,0,1,15.116,20.005Z" transform="translate(0.888 0.801)"/></svg>